<?xml version="1.0" encoding="iso-8859-1"?>
<!-- Generator: Adobe Illustrator 19.0.0, SVG Export Plug-In . SVG Version: 6.00 Build 0)  -->
<svg version="1.1" id="Capa_1" xmlns="http://www.w3.org/2000/svg" xmlns:xlink="http://www.w3.org/1999/xlink" x="0px" y="0px"
	 viewBox="0 0 512 512" style="enable-background:new 0 0 512 512;" xml:space="preserve">
<rect x="24.337" y="187.67" style="fill:#2D3E6C;" width="456.12" height="127.55"/>
<path id="SVGCleanerId_0" style="fill:#CCCCCC;" d="M426.993,30.007L397.58,59.42c-40.506-29.413-90.345-46.753-144.23-46.753
	c-135.783,0-245.849,110.098-245.849,245.922c0,135.813,110.066,245.911,245.848,245.911s245.848-110.098,245.848-245.911
	c0-56.624-19.131-108.781-51.283-150.351l28.644-28.654L426.993,30.007z M253.349,424.31c-91.504,0-165.679-74.196-165.679-165.721
	c0-91.536,74.175-165.732,165.679-165.732s165.679,74.196,165.679,165.732C419.028,350.114,344.854,424.31,253.349,424.31z"/>
<g>
	<path id="SVGCleanerId_0_1_" style="fill:#CCCCCC;" d="M426.993,30.007L397.58,59.42c-40.506-29.413-90.345-46.753-144.23-46.753
		c-135.783,0-245.849,110.098-245.849,245.922c0,135.813,110.066,245.911,245.848,245.911s245.848-110.098,245.848-245.911
		c0-56.624-19.131-108.781-51.283-150.351l28.644-28.654L426.993,30.007z M253.349,424.31c-91.504,0-165.679-74.196-165.679-165.721
		c0-91.536,74.175-165.732,165.679-165.732s165.679,74.196,165.679,165.732C419.028,350.114,344.854,424.31,253.349,424.31z"/>
</g>
<path style="fill:#CCCCCC;" d="M447.914,108.237l28.644-28.654l-49.566-49.576L397.58,59.42
	c-40.506-29.413-90.345-46.753-144.23-46.753c-4.372,0-8.723,0.116-13.042,0.337C110.594,19.788,7.501,127.137,7.501,258.589
	c0,135.813,110.066,245.911,245.848,245.911s245.848-110.098,245.848-245.911C499.197,201.965,480.066,149.807,447.914,108.237z
	 M253.349,424.31c-91.504,0-165.679-74.196-165.679-165.721c0-91.536,74.175-165.732,165.679-165.732
	s165.679,74.196,165.679,165.732C419.028,350.114,344.854,424.31,253.349,424.31z"/>
<g>
	<path style="fill:#8C8C8C;" d="M87.67,258.589c0-87.102,67.164-158.498,152.511-165.211c-4.345-0.342-8.736-0.521-13.168-0.521
		c-91.504,0-165.679,74.196-165.679,165.732c0,91.525,74.175,165.721,165.679,165.721c4.433,0,8.823-0.179,13.168-0.521
		C154.834,417.076,87.67,345.68,87.67,258.589z"/>
	<path style="fill:#8C8C8C;" d="M397.58,59.42h-15.152c-7.04,0-13.906-2.088-19.809-5.926
		c-35.697-23.207-79.117-35.815-122.491-40.469c0.053,0,0.105-0.011,0.179-0.021c4.319-0.221,8.67-0.337,13.042-0.337
		C307.234,12.667,357.074,30.007,397.58,59.42z"/>
	<path style="fill:#8C8C8C;" d="M447.914,108.237l28.644-28.654l-49.566-49.576l-13.17,13.17l15.727,15.73
		c11.418,11.42,11.418,29.933,0.002,41.354l-0.568,0.568c-4.184,4.185-4.757,10.779-1.333,15.605
		c28.473,40.138,45.21,89.193,45.21,142.155c0,131.394-103.022,238.713-232.68,245.559c4.361,0.23,8.75,0.353,13.168,0.353
		c135.782,0,245.848-110.098,245.848-245.911C499.197,201.965,480.066,149.807,447.914,108.237z"/>
</g>
<g>
	<path style="fill:#EBEBEB;" d="M203.066,217.301h-6.175c-12.936,0-23.46,10.524-23.46,23.46v22.382
		c0,12.936,10.524,23.46,23.46,23.46h6.175c12.936,0,23.46-10.524,23.46-23.46v-22.382
		C226.526,227.826,216.002,217.301,203.066,217.301z M211.526,263.144c0,4.665-3.795,8.46-8.46,8.46h-6.175
		c-4.665,0-8.46-3.795-8.46-8.46v-22.382c0-4.665,3.795-8.46,8.46-8.46h6.175c4.665,0,8.46,3.795,8.46,8.46V263.144z"/>
	<path style="fill:#EBEBEB;" d="M280.461,271.604h-30.596v-46.803c0-4.142-3.358-7.5-7.5-7.5s-7.5,3.358-7.5,7.5v54.303
		c0,4.142,3.358,7.5,7.5,7.5h38.096c4.143,0,7.5-3.358,7.5-7.5S284.604,271.604,280.461,271.604z"/>
	<path style="fill:#EBEBEB;" d="M378.577,217.301h-6.175c-12.936,0-23.46,10.524-23.46,23.46v22.382
		c0,12.936,10.524,23.46,23.46,23.46h6.175c12.936,0,23.46-10.524,23.46-23.46v-22.382
		C402.037,227.826,391.513,217.301,378.577,217.301z M387.037,263.144c0,4.665-3.795,8.46-8.46,8.46h-6.175
		c-4.665,0-8.46-3.795-8.46-8.46v-22.382c0-4.665,3.795-8.46,8.46-8.46h6.175c4.665,0,8.46,3.795,8.46,8.46V263.144z"/>
	<path style="fill:#EBEBEB;" d="M167.04,217.301h-15.479c-4.142,0-7.5,3.358-7.5,7.5c0,2.77,1.506,5.183,3.74,6.482l-8.826,25.162
		l-8.481-24.178c3.823-0.344,6.82-3.553,6.82-7.466c0-4.142-3.358-7.5-7.5-7.5h-15.479c-4.142,0-7.5,3.358-7.5,7.5
		s3.358,7.5,7.5,7.5h0.275l17.288,49.286c1.054,3.006,3.892,5.018,7.077,5.018s6.023-2.012,7.077-5.018l17.287-49.286h3.701
		c4.142,0,7.5-3.358,7.5-7.5S171.182,217.301,167.04,217.301z"/>
	<path style="fill:#EBEBEB;" d="M340.408,217.301h-15.479c-4.143,0-7.5,3.358-7.5,7.5c0,3.347,2.193,6.179,5.22,7.145l-8.594,24.5
		l-8.594-24.5c3.027-0.965,5.22-3.798,5.22-7.145c0-4.142-3.357-7.5-7.5-7.5h-15.479c-4.143,0-7.5,3.358-7.5,7.5s3.357,7.5,7.5,7.5
		h1.988l17.288,49.286c1.054,3.006,3.892,5.018,7.077,5.018s6.023-2.012,7.077-5.018l17.288-49.286h1.988c4.143,0,7.5-3.358,7.5-7.5
		S344.551,217.301,340.408,217.301z"/>
</g>
<polygon style="fill:#CCCCCC;" points="389.501,7.5 504.501,122.5 504.501,7.5 "/>
<polygon style="fill:#8C8C8C;" points="479.555,7.5 479.555,97.554 504.501,122.5 504.501,7.5 "/>
<path d="M253.349,85.357c-68.684,0-128.157,40.202-156.137,98.317c-0.342,0.541-0.622,1.126-0.817,1.749
	c-10.403,22.239-16.229,47.031-16.229,73.163c0,20.505,3.589,40.184,10.157,58.455c0.123,0.492,0.294,0.965,0.509,1.413
	c24.416,66.104,88.052,113.36,162.518,113.36c74.489,0,138.142-47.286,162.541-113.422c0.192-0.409,0.346-0.839,0.462-1.284
	c6.583-18.289,10.18-37.992,10.18-58.521c0-26.194-5.853-51.042-16.303-73.322c-0.176-0.52-0.409-1.013-0.689-1.475
	C381.583,125.613,322.079,85.357,253.349,85.357z M253.349,416.813c-64.41,0-119.945-38.712-144.592-94.093h289.184
	C373.294,378.102,317.759,416.813,253.349,416.813z M403.714,307.72H102.983c-5.066-15.475-7.818-31.988-7.818-49.135
	c0-22.541,4.747-43.99,13.276-63.416h19.226c4.142,0,7.5-3.358,7.5-7.5s-3.358-7.5-7.5-7.5h-11.672
	c27.291-47.643,78.636-79.813,137.353-79.813s110.062,32.17,137.353,79.813h-230.7c-4.142,0-7.5,3.358-7.5,7.5s3.358,7.5,7.5,7.5
	h238.255c8.53,19.426,13.276,40.875,13.276,63.416C411.532,275.732,408.781,292.245,403.714,307.72z"/>
<path d="M504.501,0h-57.5c-4.143,0-7.5,3.358-7.5,7.5s3.357,7.5,7.5,7.5h50v89.394L474.378,81.77
	c-0.002-0.002-0.003-0.003-0.005-0.005s-0.003-0.003-0.005-0.005l-49.559-49.559c-0.002-0.002-0.003-0.003-0.005-0.005
	s-0.003-0.003-0.005-0.005L407.607,15h7.894c4.143,0,7.5-3.358,7.5-7.5s-3.357-7.5-7.5-7.5h-26c-3.033,0-5.769,1.827-6.929,4.63
	c-1.161,2.803-0.52,6.028,1.625,8.173L408.894,37.5l-12.146,12.146C354.462,20.526,305.025,5.17,253.351,5.17
	c-67.673,0-131.295,26.36-179.146,74.225C26.354,127.259,0.001,190.898,0.001,258.59c0,67.687,26.353,131.324,74.204,179.187
	C122.056,485.64,185.678,512,253.351,512c63.348,0,123.984-23.506,170.739-66.189c3.059-2.793,3.275-7.537,0.482-10.596
	s-7.536-3.274-10.596-0.482C369.992,474.886,312.948,497,253.351,497c-131.427,0-238.35-106.95-238.35-238.41
	c0-131.465,106.923-238.42,238.35-238.42c50.636,0,98.986,15.671,139.824,45.319c2.983,2.167,7.101,1.843,9.71-0.766l16.616-16.616
	l38.964,38.964l-15.859,15.867c-2.668,2.67-2.937,6.906-0.627,9.892c32.528,42.046,49.722,92.449,49.722,145.76
	c0,56.179-19.909,110.731-56.062,153.609c-2.67,3.167-2.267,7.898,0.9,10.568c1.407,1.187,3.123,1.766,4.83,1.766
	c2.135,0,4.254-0.906,5.737-2.666c38.43-45.579,59.594-103.565,59.594-163.278c0-54.451-16.876-106.047-48.878-149.657
	l11.249-11.255l30.125,30.125c1.436,1.435,3.354,2.197,5.306,2.197c0.966,0,1.94-0.187,2.868-0.571
	c2.803-1.161,4.63-3.896,4.63-6.929V7.5C512.001,3.358,508.644,0,504.501,0z"/>
<g>
</g>
<g>
</g>
<g>
</g>
<g>
</g>
<g>
</g>
<g>
</g>
<g>
</g>
<g>
</g>
<g>
</g>
<g>
</g>
<g>
</g>
<g>
</g>
<g>
</g>
<g>
</g>
<g>
</g>
</svg>
